<svg width="220" height="209" viewBox="0 0 220 209" fill="none" xmlns="http://www.w3.org/2000/svg">
<path opacity="0.3" d="M92.6614 28.3537C82.0858 53.7857 76.5197 70.5344 56.4819 79.2188C36.444 87.9032 14.625 93.058 4.71736 111.474C-12.039 142.621 21.6763 185.577 52.5856 197.078C94.1222 212.533 153.43 218.208 184.848 181.174C251.139 103.034 192.307 20.0192 148.879 4.16272C120.703 -6.12478 103.237 2.92172 92.6614 28.3537Z" fill="#D9D9D9"/>
<path opacity="0.3" d="M205.75 83.327C209.349 83.327 212.267 80.4321 212.267 76.861C212.267 73.2899 209.349 70.395 205.75 70.395C202.151 70.395 199.233 73.2899 199.233 76.861C199.233 80.4321 202.151 83.327 205.75 83.327Z" fill="#C0C0C0"/>
<path opacity="0.3" d="M215.287 57.9356C217.745 57.9356 219.738 55.9586 219.738 53.5198C219.738 51.081 217.745 49.104 215.287 49.104C212.829 49.104 210.836 51.081 210.836 53.5198C210.836 55.9586 212.829 57.9356 215.287 57.9356Z" fill="#C0C0C0"/>
<path opacity="0.3" d="M29.7871 87.9C32.2452 87.9 34.2379 85.9229 34.2379 83.4842C34.2379 81.0454 32.2452 79.0684 29.7871 79.0684C27.3291 79.0684 25.3364 81.0454 25.3364 83.4842C25.3364 85.9229 27.3291 87.9 29.7871 87.9Z" fill="#C0C0C0"/>
<path opacity="0.3" d="M30.2657 183.944C34.8306 183.944 38.5313 180.272 38.5313 175.743C38.5313 171.214 34.8306 167.542 30.2657 167.542C25.7007 167.542 22 171.214 22 175.743C22 180.272 25.7007 183.944 30.2657 183.944Z" fill="#C0C0C0"/>
<g filter="url(#filter0_d_470_2975)">
<path d="M190.283 84.0009H52.6279C49.6078 84.0009 47.2234 81.6353 47.2234 78.6389V47.886C47.2234 44.8895 49.6078 42.5239 52.6279 42.5239H190.283C193.303 42.5239 195.687 44.8895 195.687 47.886V78.6389C195.846 81.6353 193.303 84.0009 190.283 84.0009Z" fill="white"/>
</g>
<path d="M108.409 58.5233H89.0382C88.5337 58.5233 88.231 58.1138 88.231 57.7043V55.1451C88.231 54.6333 88.6346 54.3262 89.0382 54.3262H108.409C108.914 54.3262 109.216 54.7356 109.216 55.1451V57.7043C109.216 58.2162 108.914 58.5233 108.409 58.5233Z" fill="#E6E8EC"/>
<path d="M133.592 58.5233H114.221C113.716 58.5233 113.414 58.1138 113.414 57.7043V55.1451C113.414 54.6333 113.817 54.3262 114.221 54.3262H133.592C134.096 54.3262 134.399 54.7356 134.399 55.1451V57.7043C134.399 58.2162 134.096 58.5233 133.592 58.5233Z" fill="#E6E8EC"/>
<path d="M158.774 58.5233H139.403C138.899 58.5233 138.596 58.1138 138.596 57.7043V55.1451C138.596 54.6333 139 54.3262 139.403 54.3262H158.774C159.279 54.3262 159.582 54.7356 159.582 55.1451V57.7043C159.582 58.2162 159.279 58.5233 158.774 58.5233Z" fill="#E6E8EC"/>
<path d="M112.999 73.9126H88.694C88.4046 73.9126 88.231 73.2302 88.231 72.5477V68.2824C88.231 67.4293 88.4625 66.9175 88.694 66.9175H112.942C113.231 66.9175 113.405 67.5999 113.405 68.2824V72.5477C113.462 73.2302 113.231 73.9126 112.999 73.9126Z" fill="#E6E8EC"/>
<path d="M142.379 73.9126H118.074C117.784 73.9126 117.611 73.2302 117.611 72.5477V68.2824C117.611 67.4293 117.842 66.9175 118.074 66.9175H142.321C142.611 66.9175 142.784 67.5999 142.784 68.2824V72.5477C142.842 73.2302 142.611 73.9126 142.379 73.9126Z" fill="#E6E8EC"/>
<path d="M171.759 73.9126H147.453C147.164 73.9126 146.99 73.2302 146.99 72.5477V68.2824C146.99 67.4293 147.222 66.9175 147.453 66.9175H171.701C171.99 66.9175 172.164 67.5999 172.164 68.2824V72.5477C172.222 73.2302 171.99 73.9126 171.759 73.9126Z" fill="#E6E8EC"/>
<path fill-rule="evenodd" clip-rule="evenodd" d="M76.0732 63.8721C76.5317 63.8721 76.9034 64.2438 76.9034 64.7023V68.8533C76.9034 70.2289 75.7883 71.344 74.4128 71.344H62.7899C61.4143 71.344 60.2992 70.2289 60.2992 68.8533V64.7023C60.2992 64.2438 60.6709 63.8721 61.1294 63.8721H76.0732ZM66.9409 66.3627C66.4824 66.3627 66.1107 66.7344 66.1107 67.1929C66.1107 67.6514 66.4824 68.0231 66.9409 68.0231H70.2617C70.7202 68.0231 71.0919 67.6514 71.0919 67.1929C71.0919 66.7344 70.7202 66.3627 70.2617 66.3627H66.9409Z" fill="#B1B5C4"/>
<path fill-rule="evenodd" clip-rule="evenodd" d="M60.2992 57.2309C60.2992 55.8553 61.4143 54.7402 62.7899 54.7402H74.4128C75.7883 54.7402 76.9034 55.8553 76.9034 57.2309V61.3819C76.9034 61.8404 76.5317 62.2121 76.0732 62.2121H61.1294C60.6709 62.2121 60.2992 61.8404 60.2992 61.3819V57.2309ZM66.9409 57.2309C66.4824 57.2309 66.1107 57.6026 66.1107 58.0611C66.1107 58.5196 66.4824 58.8913 66.9409 58.8913H70.2617C70.7202 58.8913 71.0919 58.5196 71.0919 58.0611C71.0919 57.6026 70.7202 57.2309 70.2617 57.2309H66.9409Z" fill="#E6E8EC"/>
<g filter="url(#filter1_d_470_2975)">
<path d="M190.283 188.001H52.6279C49.6078 188.001 47.2234 185.635 47.2234 182.639V151.886C47.2234 148.89 49.6078 146.524 52.6279 146.524H190.283C193.303 146.524 195.687 148.89 195.687 151.886V182.639C195.846 185.635 193.303 188.001 190.283 188.001Z" fill="white"/>
</g>
<path d="M108.409 162.523H89.0382C88.5337 162.523 88.231 162.114 88.231 161.704V159.145C88.231 158.633 88.6346 158.326 89.0382 158.326H108.409C108.914 158.326 109.216 158.736 109.216 159.145V161.704C109.216 162.216 108.914 162.523 108.409 162.523Z" fill="#E6E8EC"/>
<path d="M133.592 162.523H114.221C113.716 162.523 113.414 162.114 113.414 161.704V159.145C113.414 158.633 113.817 158.326 114.221 158.326H133.592C134.096 158.326 134.399 158.736 134.399 159.145V161.704C134.399 162.216 134.096 162.523 133.592 162.523Z" fill="#E6E8EC"/>
<path d="M158.774 162.523H139.403C138.899 162.523 138.596 162.114 138.596 161.704V159.145C138.596 158.633 139 158.326 139.403 158.326H158.774C159.279 158.326 159.582 158.736 159.582 159.145V161.704C159.582 162.216 159.279 162.523 158.774 162.523Z" fill="#E6E8EC"/>
<path d="M112.999 177.913H88.694C88.4046 177.913 88.231 177.23 88.231 176.548V172.282C88.231 171.429 88.4625 170.917 88.694 170.917H112.942C113.231 170.917 113.405 171.6 113.405 172.282V176.548C113.462 177.23 113.231 177.913 112.999 177.913Z" fill="#E6E8EC"/>
<path d="M142.379 177.913H118.074C117.784 177.913 117.611 177.23 117.611 176.548V172.282C117.611 171.429 117.842 170.917 118.074 170.917H142.321C142.611 170.917 142.784 171.6 142.784 172.282V176.548C142.842 177.23 142.611 177.913 142.379 177.913Z" fill="#E6E8EC"/>
<path d="M171.759 177.913H147.453C147.164 177.913 146.99 177.23 146.99 176.548V172.282C146.99 171.429 147.222 170.917 147.453 170.917H171.701C171.99 170.917 172.164 171.6 172.164 172.282V176.548C172.222 177.23 171.99 177.913 171.759 177.913Z" fill="#E6E8EC"/>
<path fill-rule="evenodd" clip-rule="evenodd" d="M76.0732 167.872C76.5317 167.872 76.9034 168.244 76.9034 168.702V172.853C76.9034 174.229 75.7883 175.344 74.4128 175.344H62.7899C61.4143 175.344 60.2992 174.229 60.2992 172.853V168.702C60.2992 168.244 60.6709 167.872 61.1294 167.872H76.0732ZM66.9409 170.363C66.4824 170.363 66.1107 170.734 66.1107 171.193C66.1107 171.651 66.4824 172.023 66.9409 172.023H70.2617C70.7202 172.023 71.0919 171.651 71.0919 171.193C71.0919 170.734 70.7202 170.363 70.2617 170.363H66.9409Z" fill="#B1B5C4"/>
<path fill-rule="evenodd" clip-rule="evenodd" d="M60.2992 161.231C60.2992 159.855 61.4143 158.74 62.7899 158.74H74.4128C75.7883 158.74 76.9034 159.855 76.9034 161.231V165.382C76.9034 165.84 76.5317 166.212 76.0732 166.212H61.1294C60.6709 166.212 60.2992 165.84 60.2992 165.382V161.231ZM66.9409 161.231C66.4824 161.231 66.1107 161.603 66.1107 162.061C66.1107 162.52 66.4824 162.891 66.9409 162.891H70.2617C70.7202 162.891 71.0919 162.52 71.0919 162.061C71.0919 161.603 70.7202 161.231 70.2617 161.231H66.9409Z" fill="#E6E8EC"/>
<g filter="url(#filter2_d_470_2975)">
<path d="M167.283 136.001H29.6279C26.6078 136.001 24.2234 133.635 24.2234 130.639V99.886C24.2234 96.8895 26.6078 94.5239 29.6279 94.5239H167.283C170.303 94.5239 172.687 96.8895 172.687 99.886V130.639C172.846 133.635 170.303 136.001 167.283 136.001Z" fill="white"/>
</g>
<path d="M85.4093 110.523H66.0382C65.5337 110.523 65.231 110.114 65.231 109.704V107.145C65.231 106.633 65.6346 106.326 66.0382 106.326H85.4093C85.9138 106.326 86.2165 106.736 86.2165 107.145V109.704C86.2165 110.216 85.9138 110.523 85.4093 110.523Z" fill="#E6E8EC"/>
<path d="M110.592 110.523H91.2207C90.7162 110.523 90.4135 110.114 90.4135 109.704V107.145C90.4135 106.633 90.8171 106.326 91.2207 106.326H110.592C111.096 106.326 111.399 106.736 111.399 107.145V109.704C111.399 110.216 111.096 110.523 110.592 110.523Z" fill="#E6E8EC"/>
<path d="M135.774 110.523H116.403C115.899 110.523 115.596 110.114 115.596 109.704V107.145C115.596 106.633 116 106.326 116.403 106.326H135.774C136.279 106.326 136.582 106.736 136.582 107.145V109.704C136.582 110.216 136.279 110.523 135.774 110.523Z" fill="#E6E8EC"/>
<path d="M89.9995 125.913H65.694C65.4046 125.913 65.231 125.23 65.231 124.548V120.282C65.231 119.429 65.4625 118.917 65.694 118.917H89.9416C90.2309 118.917 90.4046 119.6 90.4046 120.282V124.548C90.4624 125.23 90.2309 125.913 89.9995 125.913Z" fill="#E6E8EC"/>
<path d="M119.379 125.913H95.0736C94.7842 125.913 94.6106 125.23 94.6106 124.548V120.282C94.6106 119.429 94.8421 118.917 95.0736 118.917H119.321C119.611 118.917 119.784 119.6 119.784 120.282V124.548C119.842 125.23 119.611 125.913 119.379 125.913Z" fill="#E6E8EC"/>
<path d="M148.759 125.913H124.453C124.164 125.913 123.99 125.23 123.99 124.548V120.282C123.99 119.429 124.222 118.917 124.453 118.917H148.701C148.99 118.917 149.164 119.6 149.164 120.282V124.548C149.222 125.23 148.99 125.913 148.759 125.913Z" fill="#E6E8EC"/>
<path fill-rule="evenodd" clip-rule="evenodd" d="M53.0732 115.872C53.5317 115.872 53.9034 116.244 53.9034 116.702V120.853C53.9034 122.229 52.7883 123.344 51.4128 123.344H39.7899C38.4143 123.344 37.2992 122.229 37.2992 120.853V116.702C37.2992 116.244 37.6709 115.872 38.1294 115.872H53.0732ZM43.9409 118.363C43.4824 118.363 43.1107 118.734 43.1107 119.193C43.1107 119.651 43.4824 120.023 43.9409 120.023H47.2617C47.7202 120.023 48.0919 119.651 48.0919 119.193C48.0919 118.734 47.7202 118.363 47.2617 118.363H43.9409Z" fill="#B1B5C4"/>
<path fill-rule="evenodd" clip-rule="evenodd" d="M37.2992 109.231C37.2992 107.855 38.4143 106.74 39.7899 106.74H51.4128C52.7883 106.74 53.9034 107.855 53.9034 109.231V113.382C53.9034 113.84 53.5317 114.212 53.0732 114.212H38.1294C37.6709 114.212 37.2992 113.84 37.2992 113.382V109.231ZM43.9409 109.231C43.4824 109.231 43.1107 109.603 43.1107 110.061C43.1107 110.52 43.4824 110.891 43.9409 110.891H47.2617C47.7202 110.891 48.0919 110.52 48.0919 110.061C48.0919 109.603 47.7202 109.231 47.2617 109.231H43.9409Z" fill="#E6E8EC"/>
<defs>
<filter id="filter0_d_470_2975" x="38.2234" y="38.5239" width="166.471" height="59.4771" filterUnits="userSpaceOnUse" color-interpolation-filters="sRGB">
<feFlood flood-opacity="0" result="BackgroundImageFix"/>
<feColorMatrix in="SourceAlpha" type="matrix" values="0 0 0 0 0 0 0 0 0 0 0 0 0 0 0 0 0 0 127 0" result="hardAlpha"/>
<feOffset dy="5"/>
<feGaussianBlur stdDeviation="4.5"/>
<feColorMatrix type="matrix" values="0 0 0 0 0.397708 0 0 0 0 0.47749 0 0 0 0 0.575 0 0 0 0.17 0"/>
<feBlend mode="normal" in2="BackgroundImageFix" result="effect1_dropShadow_470_2975"/>
<feBlend mode="normal" in="SourceGraphic" in2="effect1_dropShadow_470_2975" result="shape"/>
</filter>
<filter id="filter1_d_470_2975" x="38.2234" y="142.524" width="166.471" height="59.4771" filterUnits="userSpaceOnUse" color-interpolation-filters="sRGB">
<feFlood flood-opacity="0" result="BackgroundImageFix"/>
<feColorMatrix in="SourceAlpha" type="matrix" values="0 0 0 0 0 0 0 0 0 0 0 0 0 0 0 0 0 0 127 0" result="hardAlpha"/>
<feOffset dy="5"/>
<feGaussianBlur stdDeviation="4.5"/>
<feColorMatrix type="matrix" values="0 0 0 0 0.397708 0 0 0 0 0.47749 0 0 0 0 0.575 0 0 0 0.17 0"/>
<feBlend mode="normal" in2="BackgroundImageFix" result="effect1_dropShadow_470_2975"/>
<feBlend mode="normal" in="SourceGraphic" in2="effect1_dropShadow_470_2975" result="shape"/>
</filter>
<filter id="filter2_d_470_2975" x="15.2234" y="90.5239" width="166.471" height="59.4771" filterUnits="userSpaceOnUse" color-interpolation-filters="sRGB">
<feFlood flood-opacity="0" result="BackgroundImageFix"/>
<feColorMatrix in="SourceAlpha" type="matrix" values="0 0 0 0 0 0 0 0 0 0 0 0 0 0 0 0 0 0 127 0" result="hardAlpha"/>
<feOffset dy="5"/>
<feGaussianBlur stdDeviation="4.5"/>
<feColorMatrix type="matrix" values="0 0 0 0 0.397708 0 0 0 0 0.47749 0 0 0 0 0.575 0 0 0 0.17 0"/>
<feBlend mode="normal" in2="BackgroundImageFix" result="effect1_dropShadow_470_2975"/>
<feBlend mode="normal" in="SourceGraphic" in2="effect1_dropShadow_470_2975" result="shape"/>
</filter>
</defs>
</svg>
