<svg width="51" height="51" viewBox="0 0 51 51" fill="none" xmlns="http://www.w3.org/2000/svg">
<rect x="26.0009" y="3.44058" width="31.9411" height="31.9411" transform="rotate(45.0023 26.0009 3.44058)" fill="#FEF63B" stroke="#141416" stroke-width="2"/>
<path d="M14.2943 35.3864C12.6143 35.3864 11.0043 35.1664 9.4643 34.7264C7.9243 34.2664 6.6843 33.6764 5.7443 32.9564L7.3943 29.2964C8.2943 29.9364 9.3543 30.4664 10.5743 30.8864C11.8143 31.2864 13.0643 31.4864 14.3243 31.4864C15.2843 31.4864 16.0543 31.3964 16.6343 31.2164C17.2343 31.0164 17.6743 30.7464 17.9543 30.4064C18.2343 30.0664 18.3743 29.6764 18.3743 29.2364C18.3743 28.6764 18.1543 28.2364 17.7143 27.9164C17.2743 27.5764 16.6943 27.3064 15.9743 27.1064C15.2543 26.8864 14.4543 26.6864 13.5743 26.5064C12.7143 26.3064 11.8443 26.0664 10.9643 25.7864C10.1043 25.5064 9.3143 25.1464 8.5943 24.7064C7.8743 24.2664 7.2843 23.6864 6.8243 22.9664C6.3843 22.2464 6.1643 21.3264 6.1643 20.2064C6.1643 19.0064 6.4843 17.9164 7.1243 16.9364C7.7843 15.9364 8.7643 15.1464 10.0643 14.5664C11.3843 13.9664 13.0343 13.6664 15.0143 13.6664C16.3343 13.6664 17.6343 13.8264 18.9143 14.1464C20.1943 14.4464 21.3243 14.9064 22.3043 15.5264L20.8043 19.2164C19.8243 18.6564 18.8443 18.2464 17.8643 17.9864C16.8843 17.7064 15.9243 17.5664 14.9843 17.5664C14.0443 17.5664 13.2743 17.6764 12.6743 17.8964C12.0743 18.1164 11.6443 18.4064 11.3843 18.7664C11.1243 19.1064 10.9943 19.5064 10.9943 19.9664C10.9943 20.5064 11.2143 20.9464 11.6543 21.2864C12.0943 21.6064 12.6743 21.8664 13.3943 22.0664C14.1143 22.2664 14.9043 22.4664 15.7643 22.6664C16.6443 22.8664 17.5143 23.0964 18.3743 23.3564C19.2543 23.6164 20.0543 23.9664 20.7743 24.4064C21.4943 24.8464 22.0743 25.4264 22.5143 26.1464C22.9743 26.8664 23.2043 27.7764 23.2043 28.8764C23.2043 30.0564 22.8743 31.1364 22.2143 32.1164C21.5543 33.0964 20.5643 33.8864 19.2443 34.4864C17.9443 35.0864 16.2943 35.3864 14.2943 35.3864ZM26.5252 35.0264V14.0264H35.6152C37.4952 14.0264 39.1152 14.3364 40.4752 14.9564C41.8352 15.5564 42.8852 16.4264 43.6252 17.5664C44.3652 18.7064 44.7352 20.0664 44.7352 21.6464C44.7352 23.2064 44.3652 24.5564 43.6252 25.6964C42.8852 26.8164 41.8352 27.6764 40.4752 28.2764C39.1152 28.8764 37.4952 29.1764 35.6152 29.1764H29.2252L31.3852 27.0464V35.0264H26.5252ZM39.8752 35.0264L34.6252 27.4064H39.8152L45.1252 35.0264H39.8752ZM31.3852 27.5864L29.2252 25.3064H35.3452C36.8452 25.3064 37.9652 24.9864 38.7052 24.3464C39.4452 23.6864 39.8152 22.7864 39.8152 21.6464C39.8152 20.4864 39.4452 19.5864 38.7052 18.9464C37.9652 18.3064 36.8452 17.9864 35.3452 17.9864H29.2252L31.3852 15.6764V27.5864Z" fill="#141416"/>
</svg>
