<svg width="16" height="16" viewBox="0 0 16 16" fill="none" xmlns="http://www.w3.org/2000/svg">
<path fill-rule="evenodd" clip-rule="evenodd" d="M4.36124 1.57925C2.89671 1.77267 1.77276 2.89661 1.57934 4.36114C1.44637 5.36797 1.33334 6.62743 1.33334 7.99992C1.33334 9.3724 1.44637 10.6319 1.57934 11.6387C1.77276 13.1032 2.89671 14.2272 4.36124 14.4206C5.36806 14.5536 6.62753 14.6666 8.00001 14.6666C9.37249 14.6666 10.632 14.5536 11.6388 14.4206C13.1033 14.2272 14.2273 13.1032 14.4207 11.6387C14.5537 10.6319 14.6667 9.3724 14.6667 7.99992C14.6667 6.62743 14.5537 5.36797 14.4207 4.36115C14.2273 2.89661 13.1033 1.77267 11.6388 1.57925C10.632 1.44627 9.37249 1.33325 8.00001 1.33325C6.62753 1.33325 5.36807 1.44627 4.36124 1.57925ZM8.00001 4.66659C7.63182 4.66659 7.33334 4.96506 7.33334 5.33325V7.33325H5.33334C4.96515 7.33325 4.66668 7.63173 4.66668 7.99992C4.66668 8.36811 4.96515 8.66659 5.33334 8.66659H7.33334V10.6666C7.33334 11.0348 7.63182 11.3333 8.00001 11.3333C8.3682 11.3333 8.66668 11.0348 8.66668 10.6666V8.66659H10.6667C11.0349 8.66659 11.3333 8.36811 11.3333 7.99992C11.3333 7.63173 11.0349 7.33325 10.6667 7.33325H8.66668V5.33325C8.66668 4.96506 8.3682 4.66659 8.00001 4.66659Z" fill="#777E91"/>
</svg>
