<svg width="24" height="24" viewBox="0 0 24 24" fill="none" xmlns="http://www.w3.org/2000/svg">
<path d="M15 13C13.8954 13 13 13.8954 13 15V21C13 22.1046 13.8954 23 15 23H21C22.1046 23 23 22.1046 23 21V15C23 13.8954 22.1046 13 21 13H19.5C19.2239 13 19 13.2239 19 13.5V15C19 15.5523 18.5523 16 18 16C17.4477 16 17 15.5523 17 15V13.5C17 13.2239 16.7761 13 16.5 13H15Z" fill="#3B71FE"/>
<path d="M3 13C1.89543 13 1 13.8954 1 15V21C1 22.1046 1.89543 23 3 23H9C10.1046 23 11 22.1046 11 21V15C11 13.8954 10.1046 13 9 13H7.5C7.22386 13 7 13.2239 7 13.5V15C7 15.5523 6.55228 16 6 16C5.44772 16 5 15.5523 5 15V13.5C5 13.2239 4.77614 13 4.5 13H3Z" fill="#3B71FE"/>
<path d="M9 1C7.89543 1 7 1.89543 7 3V9C7 10.1046 7.89543 11 9 11H15C16.1046 11 17 10.1046 17 9V3C17 1.89543 16.1046 1 15 1H13.5C13.2239 1 13 1.22386 13 1.5V3C13 3.55228 12.5523 4 12 4C11.4477 4 11 3.55228 11 3V1.5C11 1.22386 10.7761 1 10.5 1H9Z" fill="#3B71FE"/>
</svg>
