<svg width="18" height="23" viewBox="0 0 18 23" fill="none" xmlns="http://www.w3.org/2000/svg">
<path fill-rule="evenodd" clip-rule="evenodd" d="M3.8112 0.149214C1.79677 0.278601 0.297458 1.8001 0.178003 3.81514C0.0811569 5.44881 8.17932e-05 7.77846 6.10391e-05 11C2.86629e-05 16.0256 0.19733 19.4726 0.344049 21.3412C0.403157 22.0939 1.24529 22.4739 1.86216 22.0385L8.42332 17.4071C8.76905 17.163 9.23096 17.163 9.57669 17.4071L16.1378 22.0385C16.7547 22.4739 17.5969 22.0939 17.656 21.3412C17.8027 19.4726 18 16.0256 18 11C18 7.77836 17.9189 5.44867 17.8221 3.81499C17.7026 1.80002 16.2033 0.278611 14.189 0.149223C12.8867 0.0655718 11.1728 0 9 0C6.82726 0 5.11349 0.0655667 3.8112 0.149214Z" fill="#3B71FE"/>
</svg>
