<svg width="24" height="24" viewBox="0 0 24 24" fill="none" xmlns="http://www.w3.org/2000/svg">
<path fill-rule="evenodd" clip-rule="evenodd" d="M21 13C21.5523 13 22 13.4477 22 14V19C22 20.6569 20.6569 22 19 22H5C3.34315 22 2 20.6569 2 19V14C2 13.4477 2.44772 13 3 13H21ZM10 16C9.44772 16 9 16.4477 9 17C9 17.5523 9.44772 18 10 18H14C14.5523 18 15 17.5523 15 17C15 16.4477 14.5523 16 14 16H10Z" fill="#3B71FE"/>
<path fill-rule="evenodd" clip-rule="evenodd" d="M2 5C2 3.34315 3.34315 2 5 2H19C20.6569 2 22 3.34315 22 5V10C22 10.5523 21.5523 11 21 11H3C2.44772 11 2 10.5523 2 10V5ZM10 5C9.44772 5 9 5.44772 9 6C9 6.55228 9.44772 7 10 7H14C14.5523 7 15 6.55228 15 6C15 5.44772 14.5523 5 14 5H10Z" fill="#B4C2E8"/>
</svg>
