<svg width="24" height="24" viewBox="0 0 24 24" fill="none" xmlns="http://www.w3.org/2000/svg">
<path d="M9 18C13.9706 18 18 13.9706 18 9C18 8.85129 17.9964 8.70342 17.9893 8.55648C17.9748 8.25893 18.2055 8 18.5034 8H20C21.1046 8 22 8.89543 22 10V20C22 21.1046 21.1046 22 20 22H10C8.89543 22 8 21.1046 8 20V18.5034C8 18.2055 8.25893 17.9748 8.55648 17.9893C8.70342 17.9964 8.85129 18 9 18Z" fill="#3B71FE"/>
<path d="M16 9C16 12.866 12.866 16 9 16C5.13401 16 2 12.866 2 9C2 5.13401 5.13401 2 9 2C12.866 2 16 5.13401 16 9Z" fill="#B4C2E8"/>
</svg>
