<svg width="14" height="14" viewBox="0 0 14 14" fill="none" xmlns="http://www.w3.org/2000/svg">
<path fill-rule="evenodd" clip-rule="evenodd" d="M7.00001 13.6666C10.6819 13.6666 13.6667 10.6818 13.6667 6.99992C13.6667 3.31802 10.6819 0.333252 7.00001 0.333252C3.31811 0.333252 0.333344 3.31802 0.333344 6.99992C0.333344 10.6818 3.31811 13.6666 7.00001 13.6666ZM5.47141 4.52851C5.21107 4.26816 4.78896 4.26816 4.52861 4.52851C4.26826 4.78886 4.26826 5.21097 4.52861 5.47132L6.0572 6.99992L4.52861 8.52851C4.26826 8.78886 4.26826 9.21097 4.52861 9.47132C4.78896 9.73167 5.21107 9.73167 5.47141 9.47132L7.00001 7.94273L8.52861 9.47132C8.78896 9.73167 9.21107 9.73167 9.47141 9.47132C9.73176 9.21097 9.73176 8.78886 9.47141 8.52851L7.94282 6.99992L9.47141 5.47132C9.73176 5.21097 9.73176 4.78886 9.47141 4.52851C9.21107 4.26816 8.78896 4.26816 8.52861 4.52851L7.00001 6.05711L5.47141 4.52851Z" fill="#FA8F54"/>
</svg>
