<svg width="16" height="16" viewBox="0 0 16 16" fill="none" xmlns="http://www.w3.org/2000/svg">
<rect x="2" y="14" width="12" height="1.33333" rx="0.666667" fill="#777E91"/>
<path fill-rule="evenodd" clip-rule="evenodd" d="M2.72384 7.6665L2.39052 7.99982C2.14048 8.24987 2 8.58901 2 8.94263V11.3332C2 12.0695 2.59695 12.6665 3.33333 12.6665H5.72386C6.07748 12.6665 6.41662 12.526 6.66667 12.276L6.99998 11.9426L2.72384 7.6665Z" fill="#777E91"/>
<path fill-rule="evenodd" clip-rule="evenodd" d="M3.6665 6.72369L7.72369 2.6665L11.9998 6.94265L7.94265 10.9998L3.6665 6.72369Z" fill="#777E91"/>
<path fill-rule="evenodd" clip-rule="evenodd" d="M12.0807 1.13803C11.2997 0.356984 10.0334 0.356984 9.25231 1.13803L8.6665 1.72384L12.9426 5.99998L13.5285 5.41417C14.3095 4.63313 14.3095 3.3668 13.5285 2.58575L12.0807 1.13803Z" fill="#777E91"/>
</svg>
