<svg width="20" height="20" viewBox="0 0 20 20" fill="none" xmlns="http://www.w3.org/2000/svg">
<path fill-rule="evenodd" clip-rule="evenodd" d="M10 20C15.5228 20 20 15.5228 20 10C20 4.47715 15.5228 0 10 0C4.47715 0 0 4.47715 0 10C0 15.5228 4.47715 20 10 20ZM7.76684 7.86561C8.2449 8.14215 8.85663 7.97879 9.13317 7.50073C10.0902 6.1154 11.9401 7.96 10.4234 8.86165C10.1507 9.02371 9.79421 9.29348 9.52304 9.62394C9.26628 9.93684 9.03045 10.3672 9.00272 10.896C8.99919 10.9302 8.99738 10.9649 8.99738 11C8.99738 11.5523 9.44509 12 9.99738 12C10.7596 12 10.9047 11.595 11.0512 11.1864C11.1453 10.9235 11.2401 10.6591 11.5 10.5C12.3266 9.99398 13 9.09773 13 8C13 6.34315 11.6569 5 10 5C8.88832 5 7.91916 5.60518 7.40196 6.49927C7.12542 6.97733 7.28878 7.58906 7.76684 7.86561ZM8.99738 14C8.99738 13.4477 9.4451 13 9.99738 13C10.5497 13 10.9974 13.4477 10.9974 14C10.9974 14.5523 10.5497 15 9.99738 15C9.4451 15 8.99738 14.5523 8.99738 14Z" fill="#3B71FE"/>
</svg>
