<svg width="24" height="24" viewBox="0 0 24 24" fill="none" xmlns="http://www.w3.org/2000/svg">
<path fill-rule="evenodd" clip-rule="evenodd" d="M5.94826 2.45153C4.12109 2.71842 2.71842 4.12109 2.45153 5.94826C2.21869 7.54228 2 9.6618 2 12C2 13.7155 2.0945 15.4509 2.3202 17.158C2.3736 17.5619 2.8643 17.7213 3.15241 17.4332L6.5858 13.9998C7.36685 13.2188 8.63318 13.2188 9.41423 13.9998L10.6465 15.2321C10.8417 15.4273 11.1583 15.4273 11.3536 15.2321L14.5858 11.9998C15.3669 11.2188 16.6332 11.2188 17.4142 11.9998L21.0231 15.6087C21.3204 15.906 21.827 15.7259 21.8614 15.3069C21.9453 14.285 22 13.1699 22 12C22 9.6618 21.7813 7.54228 21.5485 5.94826C21.2816 4.12109 19.8789 2.71842 18.0517 2.45153C16.4577 2.21869 14.3382 2 12 2C9.6618 2 7.54228 2.21869 5.94826 2.45153ZM10 8C10 9.10457 9.10457 10 8 10C6.89543 10 6 9.10457 6 8C6 6.89543 6.89543 6 8 6C9.10457 6 10 6.89543 10 8Z" fill="#3B71FE"/>
<path d="M21.2638 19.077C21.3374 18.9021 21.2884 18.7024 21.1542 18.5683L16.3536 13.7676C16.1583 13.5724 15.8417 13.5724 15.6465 13.7676L12.4142 16.9998C11.6332 17.7809 10.3668 17.7809 9.5858 16.9998L8.35357 15.7676C8.15831 15.5724 7.84172 15.5724 7.64646 15.7676L3.65605 19.758C3.47469 19.9394 3.45777 20.2312 3.64075 20.4109C4.24995 21.0093 5.04752 21.4169 5.94826 21.5485C7.54228 21.7813 9.6618 22 12 22C14.3382 22 16.4577 21.7813 18.0517 21.5485C19.5189 21.3342 20.7123 20.3876 21.2638 19.077Z" fill="#3B71FE"/>
</svg>
