<svg width="24" height="24" viewBox="0 0 24 24" fill="none" xmlns="http://www.w3.org/2000/svg">
<path fill-rule="evenodd" clip-rule="evenodd" d="M10.2093 18.8523C10.3267 20.4628 11.5332 21.7101 13.1409 21.8611C13.978 21.9398 14.9589 22 16 22C17.0412 22 18.0221 21.9398 18.8592 21.8611C20.4669 21.7101 21.6734 20.4628 21.7908 18.8523C21.9008 17.3432 22 15.118 22 12C22 8.882 21.9008 6.65683 21.7908 5.14773C21.6734 3.5372 20.4669 2.2899 18.8592 2.13886C18.0221 2.06022 17.0412 2 16 2C14.9589 2 13.978 2.06022 13.1409 2.13886C11.5332 2.2899 10.3267 3.5372 10.2093 5.14773C10.1114 6.49027 10.0221 8.39954 10.0035 11H15C15.5523 11 16 11.4477 16 12C16 12.5523 15.5523 13 15 13H10.0035C10.0221 15.6005 10.1114 17.5097 10.2093 18.8523Z" fill="#3B71FE"/>
<path fill-rule="evenodd" clip-rule="evenodd" d="M7.20711 14.7929C7.59763 15.1834 7.59763 15.8166 7.20711 16.2071C6.81658 16.5976 6.18342 16.5976 5.79289 16.2071L2.29289 12.7071C1.90237 12.3166 1.90237 11.6834 2.29289 11.2929L5.79289 7.79289C6.18342 7.40237 6.81658 7.40237 7.20711 7.79289C7.59763 8.18342 7.59763 8.81658 7.20711 9.20711L5.41421 11H10V13L5.41421 13L7.20711 14.7929Z" fill="#B4C2E8"/>
</svg>
