<svg width="14" height="14" viewBox="0 0 14 14" fill="none" xmlns="http://www.w3.org/2000/svg">
<path d="M10.811 2.47932C10.944 2.80089 11.1992 3.0565 11.5206 3.18995L12.6475 3.65673C12.9691 3.78994 13.2246 4.04545 13.3578 4.36705C13.491 4.68865 13.491 5.04999 13.3578 5.37159L12.8914 6.49768C12.7581 6.81943 12.7579 7.18114 12.8918 7.50272L13.3574 8.62848C13.4235 8.78777 13.4575 8.9585 13.4575 9.13093C13.4575 9.30336 13.4236 9.47411 13.3576 9.63342C13.2916 9.79272 13.1949 9.93746 13.0729 10.0594C12.951 10.1813 12.8062 10.278 12.6469 10.3439L11.5208 10.8103C11.1992 10.9433 10.9436 11.1985 10.8101 11.5199L10.3434 12.6468C10.2102 12.9684 9.95465 13.2239 9.63305 13.3571C9.31145 13.4903 8.95011 13.4903 8.62851 13.3571L7.50241 12.8907C7.1808 12.7578 6.81959 12.7581 6.49818 12.8914L5.37128 13.3575C5.04986 13.4904 4.68883 13.4903 4.36749 13.3572C4.04615 13.2241 3.79079 12.9689 3.65748 12.6477L3.19057 11.5204C3.0576 11.1989 2.80238 10.9432 2.481 10.8098L1.3541 10.343C1.03264 10.2099 0.777206 9.95452 0.643946 9.63311C0.510686 9.31169 0.510505 8.95051 0.643444 8.62897L1.10989 7.50287C1.24277 7.18126 1.2425 6.82005 1.10913 6.49864L0.643359 5.37093C0.577321 5.21165 0.543318 5.04091 0.54329 4.86848C0.543262 4.69605 0.577211 4.5253 0.643198 4.366C0.709184 4.20669 0.805914 4.06195 0.927861 3.94004C1.04981 3.81814 1.19458 3.72145 1.35391 3.65552L2.48 3.18907C2.80129 3.05622 3.05675 2.80132 3.1903 2.48032L3.65708 1.35341C3.79029 1.03182 4.0458 0.776306 4.3674 0.643095C4.689 0.509884 5.05034 0.509884 5.37194 0.643095L6.49803 1.10954C6.81964 1.24242 7.18086 1.24215 7.50227 1.10878L8.62964 0.643818C8.9512 0.510682 9.31247 0.510709 9.634 0.643894C9.95554 0.777078 10.211 1.03251 10.3442 1.35403L10.8112 2.48127L10.811 2.47932Z" fill="#3D58DB"/>
<path fill-rule="evenodd" clip-rule="evenodd" d="M10.0068 4.78585C10.1018 4.6553 10.1336 4.49707 10.0953 4.34599C10.0569 4.1949 9.95155 4.06333 9.80234 3.98021C9.65312 3.8971 9.47228 3.86925 9.2996 3.90279C9.12691 3.93633 8.97653 4.02852 8.88153 4.15907L6.27111 7.74788L5.07656 6.44144C4.96612 6.32058 4.80534 6.24306 4.62957 6.22592C4.4538 6.20879 4.27745 6.25345 4.13932 6.35007C4.00118 6.4467 3.91257 6.58737 3.89299 6.74116C3.8734 6.89494 3.92444 7.04923 4.03488 7.17009L5.81249 9.11419C5.87874 9.18674 5.96383 9.24439 6.06068 9.28236C6.15753 9.32034 6.26334 9.33753 6.36932 9.33251C6.47529 9.32749 6.57836 9.3004 6.66996 9.2535C6.76156 9.2066 6.83904 9.14125 6.89594 9.06287L10.0068 4.78585Z" fill="white"/>
</svg>
