<svg width="18" height="24" viewBox="0 0 18 24" fill="none" xmlns="http://www.w3.org/2000/svg">
<path fill-rule="evenodd" clip-rule="evenodd" d="M3.81113 0.856245C1.7967 0.985633 0.297397 2.50713 0.177942 4.52217C0.0810958 6.15584 2.0758e-05 8.48549 3.98407e-09 11.707C-3.23723e-05 16.7326 0.197269 20.1797 0.343988 22.0482C0.403096 22.8009 1.24523 23.1809 1.8621 22.7455L8.42326 18.1141C8.76899 17.8701 9.2309 17.8701 9.57662 18.1141L16.1378 22.7455C16.7547 23.181 17.5968 22.8009 17.6559 22.0482C17.8026 20.1797 17.9999 16.7326 17.9999 11.707C17.9999 8.48539 17.9189 6.1557 17.822 4.52202C17.7025 2.50706 16.2033 0.985643 14.1889 0.856255C12.8866 0.772603 11.1728 0.707031 8.99994 0.707031C6.8272 0.707031 5.11343 0.772598 3.81113 0.856245Z" fill="#92A5EF"/>
<path d="M14 23.207C14 23.207 7 20.7069 7 18.2069C7 15.7069 9.5 1.70691 12.5 1.70703C15.5 1.70715 16.0523 2.52228 17 4.20703C17.5 5.09593 17.5 10.707 17 14.707C16.6482 17.5211 15.5 22.2069 15.5 22.2069C15.5 22.2069 15.4153 22.9696 15 23.2069C14.6609 23.4007 14 23.207 14 23.207Z" fill="#3B71FE"/>
</svg>
