<svg width="1728" height="1117" viewBox="0 0 1728 1117" fill="none" xmlns="http://www.w3.org/2000/svg">
<rect width="1728" height="1117" fill="#FAF9F9"/>
<rect width="1728" height="1117" fill="#F4F5F6"/>
<path d="M125 338.424C168.265 377.3 183.314 381.074 183.314 338.424C183.314 295.774 240.875 321.44 257.805 338.424C274.735 355.409 279.626 292 304.08 292C328.534 292 313.862 338.424 350.355 338.424C379.55 338.424 355.5 361 386 361" stroke="black" stroke-dasharray="2 2"/>
<circle cx="384" cy="363" r="17" fill="#FA8F54"/>
<path d="M1048 513.424C1091.27 552.3 1106.31 556.074 1106.31 513.424C1106.31 470.774 1163.88 496.44 1180.81 513.424C1197.74 530.409 1202.63 467 1227.08 467C1251.53 467 1236.86 513.424 1273.36 513.424C1302.55 513.424 1278.5 536 1309 536" stroke="black" stroke-dasharray="2 2"/>
<circle cx="1307" cy="538" r="17" fill="#FA8F54"/>
<circle cx="481" cy="672" r="16.5" stroke="#141416"/>
<circle cx="310.5" cy="279.5" r="6" stroke="#141416"/>
<circle cx="1250.5" cy="435.5" r="6" stroke="#141416"/>
<rect x="125" y="557" width="154" height="294" fill="#92A5EF"/>
<rect x="327.5" y="671.5" width="153" height="179" stroke="#141416"/>
<rect x="1247.5" y="671.5" width="153" height="178" stroke="#141416"/>
<rect x="1449" y="557" width="154" height="294" fill="#92A5EF"/>
<line x1="112" y1="850.5" x2="1622" y2="849.5" stroke="#141416"/>
<rect x="1251.5" y="192.5" width="123" height="67" stroke="#141416"/>
<path d="M1274.35 213.657C1309.5 200.5 1324.5 225.5 1358.9 213.657" stroke="black"/>
<line x1="1298.51" y1="234.287" x2="1358.9" y2="234.287" stroke="black"/>
<circle r="4.5" transform="matrix(1 0 0 -1 193.5 732.5)" fill="#141416"/>
<circle r="4.5" transform="matrix(1 0 0 -1 184.5 650.5)" fill="#141416"/>
<circle r="4.5" transform="matrix(1 0 0 -1 206.5 632.5)" fill="#141416"/>
<circle r="4.5" transform="matrix(1 0 0 -1 215.5 692.5)" fill="#141416"/>
<circle r="4.5" transform="matrix(1 0 0 -1 165.5 708.5)" fill="#141416"/>
<circle r="4.5" transform="matrix(1 0 0 -1 254.5 597.5)" fill="#141416"/>
<circle r="4.5" transform="matrix(1 0 0 -1 149.5 592.5)" fill="#141416"/>
<circle r="4.5" transform="matrix(1 0 0 -1 259.5 732.5)" fill="#141416"/>
<circle r="4.5" transform="matrix(1 0 0 -1 152.5 826.5)" fill="#141416"/>
<circle r="4.5" transform="matrix(1 0 0 -1 215.5 750.5)" fill="#141416"/>
<circle r="4.5" transform="matrix(1 0 0 -1 184.5 786.5)" fill="#141416"/>
<circle r="4.5" transform="matrix(1 0 0 -1 211.5 817.5)" fill="#141416"/>
<circle r="4.5" transform="matrix(1 0 0 -1 245.5 795.5)" fill="#141416"/>
<circle r="4.5" transform="matrix(1 0 0 -1 147.5 674.5)" fill="#141416"/>
<circle r="4.5" transform="matrix(1 0 0 -1 279.5 662.5)" fill="#141416"/>
<circle r="4.5" transform="matrix(1 0 0 -1 224.5 557.5)" fill="#141416"/>
<circle r="4.5" transform="matrix(1 0 0 -1 279.5 840.5)" fill="#141416"/>
<circle r="4.5" transform="matrix(1 0 0 -1 1503.5 654.5)" fill="#141416"/>
<circle r="4.5" transform="matrix(1 0 0 -1 1525.5 636.5)" fill="#141416"/>
<circle r="4.5" transform="matrix(1 0 0 -1 1534.5 696.5)" fill="#141416"/>
<circle r="4.5" transform="matrix(1 0 0 -1 1484.5 712.5)" fill="#141416"/>
<circle r="4.5" transform="matrix(1 0 0 -1 1573.5 601.5)" fill="#141416"/>
<circle r="4.5" transform="matrix(1 0 0 -1 1468.5 596.5)" fill="#141416"/>
<circle r="4.5" transform="matrix(1 0 0 -1 1578.5 736.5)" fill="#141416"/>
<circle r="4.5" transform="matrix(1 0 0 -1 1471.5 830.5)" fill="#141416"/>
<circle r="4.5" transform="matrix(1 0 0 -1 1534.5 754.5)" fill="#141416"/>
<circle r="4.5" transform="matrix(1 0 0 -1 1503.5 790.5)" fill="#141416"/>
<circle r="4.5" transform="matrix(1 0 0 -1 1530.5 821.5)" fill="#141416"/>
<circle r="4.5" transform="matrix(1 0 0 -1 1564.5 799.5)" fill="#141416"/>
<circle r="4.5" transform="matrix(1 0 0 -1 1466.5 678.5)" fill="#141416"/>
<circle r="4.5" transform="matrix(1 0 0 -1 1598.5 666.5)" fill="#141416"/>
<circle r="4.5" transform="matrix(1 0 0 -1 1543.5 561.5)" fill="#141416"/>
<circle r="4.5" transform="matrix(1 0 0 -1 1598.5 844.5)" fill="#141416"/>
<path d="M351.003 825.836C352.182 826.718 353.853 826.477 354.735 825.297C355.617 824.118 355.376 822.447 354.196 821.565C353.017 820.683 351.346 820.924 350.464 822.104C349.582 823.283 349.823 824.954 351.003 825.836ZM352.6 824.201C381.834 824.201 395.709 818.229 401.332 808.828C404.14 804.133 404.844 798.653 404.444 792.79C404.045 786.932 402.54 780.645 400.884 774.311C399.223 767.962 397.413 761.569 396.372 755.438C395.331 749.308 395.071 743.496 396.479 738.317C397.882 733.158 400.95 728.596 406.635 724.964C412.336 721.322 420.686 718.605 432.658 717.197L432.541 716.204C420.489 717.621 411.973 720.367 406.097 724.121C400.204 727.885 396.983 732.653 395.514 738.055C394.051 743.437 394.335 749.416 395.386 755.605C396.437 761.792 398.264 768.245 399.916 774.564C401.573 780.9 403.055 787.105 403.447 792.858C403.839 798.609 403.138 803.86 400.474 808.314C395.153 817.21 381.815 823.201 352.6 823.201L352.6 824.201Z" fill="black"/>
<path d="M1277.86 812.941C1279.04 813.823 1280.71 813.582 1281.59 812.402C1282.47 811.223 1282.23 809.552 1281.05 808.67C1279.87 807.788 1278.2 808.029 1277.32 809.209C1276.43 810.388 1276.68 812.059 1277.86 812.941ZM1279.45 811.306C1308.69 811.306 1322.56 805.334 1328.18 795.932C1330.99 791.238 1331.7 785.757 1331.3 779.895C1330.9 774.037 1329.39 767.75 1327.74 761.416C1326.08 755.066 1324.27 748.674 1323.22 742.543C1322.18 736.413 1321.92 730.601 1323.33 725.422C1324.73 720.263 1327.8 715.701 1333.49 712.069C1339.19 708.427 1347.54 705.71 1359.51 704.302L1359.39 703.309C1347.34 704.726 1338.83 707.472 1332.95 711.226C1327.06 714.99 1323.84 719.758 1322.37 725.16C1320.9 730.542 1321.19 736.521 1322.24 742.71C1323.29 748.897 1325.12 755.35 1326.77 761.669C1328.43 768.005 1329.91 774.21 1330.3 779.963C1330.69 785.713 1329.99 790.965 1327.33 795.419C1322.01 804.314 1308.67 810.306 1279.45 810.306L1279.45 811.306Z" fill="black"/>
</svg>
